<?xml version="1.0" encoding="utf-8"?>
<!-- Generator: Adobe Illustrator 19.2.1, SVG Export Plug-In . SVG Version: 6.00 Build 0)  -->
<svg version="1.1" id="Layer_1" xmlns="http://www.w3.org/2000/svg" xmlns:xlink="http://www.w3.org/1999/xlink" x="0px" y="0px"
	 viewBox="0 0 44.9 42.8" style="enable-background:new 0 0 44.9 42.8;" xml:space="preserve">
<style type="text/css">
	.st0{fill:#FFFFFF;}
	.st1{fill:none;stroke:#FFFFFF;stroke-miterlimit:10;}
	.st2{fill-opacity:0.36;}
</style>
<g id="Layer_1_1_">
	<g id="Layer_3">
		<g>
			<g>
				<g>
					
						<image style="overflow:visible;opacity:0.75;" width="41" height="41" xlink:href="AD511633450F56FD.png"  transform="matrix(1 0 0 1 1 0.8)">
					</image>
					<g>
						<circle class="st0" cx="21.4" cy="21.1" r="17.2"/>
					</g>
				</g>
				<circle class="st1" cx="21.4" cy="21.1" r="17.2"/>
			</g>
		</g>
	</g>
	<path d="M26,18l-9-8.9l-1.4,1.4l2.4,2.4L12.8,18c-0.6,0.6-0.6,1.5,0,2.1l5.5,5.5c0.3,0.3,0.7,0.4,1.1,0.4s0.8-0.1,1.1-0.4l5.5-5.5
		C26.6,19.6,26.6,18.6,26,18z M14.6,19.1l4.8-4.8l4.8,4.8H14.6z M28.4,20.6c0,0-2,2.2-2,3.5c0,1.1,0.9,2,2,2s2-0.9,2-2
		C30.4,22.8,28.4,20.6,28.4,20.6z"/>
	<path class="st2" d="M9.4,29.1h24v4h-24C9.4,33.1,9.4,29.1,9.4,29.1z"/>
</g>
</svg>
